<svg id="Layer_1" data-name="Layer 1" xmlns="http://www.w3.org/2000/svg" width="86.043" height="105.62599" viewBox="0 0 86.043 105.62599">
  <defs>
    <style>
      .cls-1 {
        fill: #fff;
      }
    </style>
  </defs>
  <title>arrows-1</title>
  <g>
    <g>
      <path d="M76.80009,52.09971c3.46874-2.57325,6.12008-5.09386,9.24822-6.66546a12.41643,12.41643,0,0,1,7.26412-.89917c4.91609.861,7.43186,6.04632,4.38041,9.86085-8.12506,10.1569-12.03118,22.12546-16.55841,34.005C75.96223,101.973,64.0187,106.431,50.701,107.64771,30.163,109.524,15.30159,95.2509,14.80386,73.73234,14.72519,70.33127,13.5394,66.9624,13.384,63.555c-.25155-5.51753-.82406-11.185.10811-16.55136,1.2407-7.14286,6.30048-9.67912,13.5506-7.91153a42.34372,42.34372,0,0,1,3.26817-5.13095,9.55432,9.55432,0,0,1,9.79977-3.25022,4.40034,4.40034,0,0,0,3.27066-.4107c6.42275-5.551,8.33638-5.93421,16.39483-2.5851.93109-4.06181,1.43671-8.23279,2.88918-12.04275A43.61637,43.61637,0,0,1,68.50772,5.23153a7.21958,7.21958,0,0,1,8.9994-2.38233c3.596,1.4365,4.67813,4.47269,4.31352,7.80326-.78837,7.20131-2.10548,14.34309-2.99791,21.53511C78.017,38.681,77.48859,45.20884,76.80009,52.09971ZM17.5599,72.42161a62.32182,62.32182,0,0,0,.77783,7.85893c2.41973,11.38,8.18833,20.33509,19.86641,23.73859,19.18875,5.59241,36.9654-4.5125,43.14809-23.42889,2.27354-6.95606,5.83251-13.5142,9.08185-20.11765,1.21342-2.46593,3.33749-4.46645,4.82758-6.81778,1.98493-3.13217,1.20491-5.66795-2.43805-6.14389-2.49072-.3254-6.12708.18266-7.63944,1.81316A104.20685,104.20685,0,0,0,73.73133,64.52614c-2.01309,3.1823-3.97935,4.94208-7.93052,4.66091-6.38465-.45435-11.25261,2.598-14.99437,7.59116-1.19732,1.59777-2.28284,3.27932-3.41953,4.92253a3.18494,3.18494,0,0,1-.19322-2.59656c3.391-8.44694,10.03674-12.3021,18.752-13.25932,1.18491-.13013,2.99963-.1955,3.39139-.91063,1.83437-3.34847,4.11216-6.77948,4.69631-10.42686,1.80677-11.28129,2.92425-22.67337,4.28767-34.025.41533-3.4581,1.11731-6.93149,1.05091-10.38565-.09151-4.761-4.11008-6.74011-7.792-3.82786-1.98872,1.573-4.15056,3.82448-4.7153,6.14028-2.10223,8.62049-3.57483,17.39447-5.28427,26.11075q-.4304,2.19455-.86449,4.38832l-1.93906-.14531c0-2.4361.3334-4.9334-.099-7.29021-.38891-2.11952-1.11019-5.14522-2.6009-5.85954-2.02918-.97236-5.03318-.52843-7.41487.0922-1.359.35411-2.61564,2.098-3.39652,3.50558-3.99013,7.19261-4.17127,14.95351-2.66457,22.77678.24379,1.26576,2.05984,3.04827,3.2363,3.11785,1.65828.09808,4.22183-.715,4.9277-1.96733,1.38054-2.44939,1.89355-5.44091,2.48559-8.26669.59529-2.84113.84994-5.75361,1.25385-8.63482L56.58,40.4592c-.30265,4.0253-.33216,8.094-.96439,12.06689C54.2683,60.99235,50.093,63.55519,41.89325,61.33c-3.837,6.07694-6.5046,6.96547-12.12227,4.99867C25.26267,68.57816,21.69263,70.35951,17.5599,72.42161ZM39.68315,33.85012c-4.28447-1.11061-6.60657-.361-8.61251,3.75621C27.7524,44.417,26.51777,51.641,28.32455,59.12036c.74632,3.08956,2.1323,6.00717,6.16691,5.41008,4.02576-.59581,5.02739-3.84874,5.121-7.12387C39.83295,49.694,39.68315,41.97081,39.68315,33.85012ZM14.70393,54.95647c.55384,3.09935.52631,6.36159,1.81533,8.97427.87962,1.78289,3.632,3.75383,5.48675,3.69632,3.19074-.0989,4.30349-3.14131,4.20771-6.16448-.17866-5.63979-.57268-11.27254-.77205-16.91194-.11409-3.2284-1.60209-4.53085-4.40308-3.02676a10.16549,10.16549,0,0,0-4.43785,4.55571C15.4677,48.83013,15.28951,51.974,14.70393,54.95647Z" transform="translate(-12.97851 -2.187)"/>
      <path class="cls-1" d="M17.5599,72.42161c4.13273-2.0621,7.70277-3.84345,12.21108-6.09293,5.61767,1.9668,8.2853,1.07827,12.12227-4.99867,8.19978,2.22518,12.37505-.33766,13.7224-8.80392.63223-3.97284.66174-8.04159.96439-12.06689l-2.07569-.22252c-.40391,2.88121-.65856,5.79369-1.25385,8.63482-.592,2.82578-1.10505,5.8173-2.48559,8.26669-.70587,1.25235-3.26942,2.06541-4.9277,1.96733-1.17646-.06958-2.99251-1.85209-3.2363-3.11785-1.5067-7.82327-1.32556-15.58417,2.66457-22.77678.78088-1.40762,2.03756-3.15147,3.39652-3.50558,2.38169-.62063,5.38569-1.06456,7.41487-.0922,1.49071.71432,2.212,3.74,2.6009,5.85954.43245,2.35681.099,4.85411.099,7.29021l1.93906.14531q.43233-2.19415.86449-4.38832c1.70944-8.71628,3.182-17.49026,5.28427-26.11075.56474-2.3158,2.72658-4.56733,4.7153-6.14028,3.68193-2.91225,7.7005-.93317,7.792,3.82786.0664,3.45416-.63558,6.92755-1.05091,10.38565-1.36342,11.35167-2.4809,22.74375-4.28767,34.025-.58415,3.64738-2.86194,7.07839-4.69631,10.42686-.39176.71513-2.20648.7805-3.39139.91063-8.71524.95722-15.361,4.81238-18.752,13.25932a3.18494,3.18494,0,0,0,.19322,2.59656c1.13669-1.64321,2.22221-3.32476,3.41953-4.92253,3.74176-4.99312,8.60972-8.04551,14.99437-7.59116,3.95117.28117,5.91743-1.47861,7.93052-4.66091A104.20685,104.20685,0,0,1,85.18417,49.32408c1.51236-1.6305,5.14872-2.13856,7.63944-1.81316,3.643.47594,4.423,3.01172,2.43805,6.14389-1.49009,2.35133-3.61416,4.35185-4.82758,6.81778-3.24934,6.60345-6.80831,13.16159-9.08185,20.11765-6.18269,18.91639-23.95934,29.0213-43.14809,23.42889-11.67808-3.4035-17.44668-12.35861-19.86641-23.73859A62.32182,62.32182,0,0,1,17.5599,72.42161Z" transform="translate(-12.97851 -2.187)"/>
      <path class="cls-1" d="M39.68315,33.85012c0,8.12069.1498,15.84385-.07068,23.55645-.09362,3.27513-1.09525,6.52806-5.121,7.12387-4.03461.59709-5.42059-2.32052-6.16691-5.41008-1.80678-7.47934-.57215-14.70332,2.74609-21.514C33.07658,33.48912,35.39868,32.73951,39.68315,33.85012Z" transform="translate(-12.97851 -2.187)"/>
    </g>
    <path class="cls-1" d="M14.70393,54.95647c.58558-2.98247.76377-6.12634,1.89681-8.87688a10.16549,10.16549,0,0,1,4.43785-4.55571c2.801-1.50409,4.289-.20164,4.40308,3.02676.19937,5.6394.59339,11.27215.77205,16.91194.09578,3.02317-1.017,6.06558-4.20771,6.16448-1.85477.05751-4.60713-1.91343-5.48675-3.69632C15.23024,61.31806,15.25777,58.05582,14.70393,54.95647Z" transform="translate(-12.97851 -2.187)"/>
  </g>
</svg>
