<svg id="Layer_1" data-name="Layer 1" xmlns="http://www.w3.org/2000/svg" width="68.01606" height="106.55867" viewBox="0 0 68.01606 106.55867"><defs><style>.cls-1{fill:#fff;}</style></defs><title>arrows-2</title><path d="M62.99489,42.38937c4.905,0,9.02821-.197,13.12653.039,10.06962.57965,13.13722,6.32984,8.43007,15.18835a5.24907,5.24907,0,0,0-.0562,4.22357c2.43351,4.69367,1.58816,8.76574-1.64067,12.62583-.45492.54387-1.33521,1.16994-1.26571,1.64862,1.00924,6.95047-3.99272,12.63524-4.12529,19.15508-.10928,5.37464-2.34742,8.6751-6.81954,10.72131a20.612,20.612,0,0,1-7.73449,2.21524c-8.473.1989-17.09019.82844-25.39983-.4053-8.58209-1.27419-18.208-11.447-15.35651-22.13676a5.68,5.68,0,0,0-.69418-3.20923c-4.61484-11.0335-3.43395-21.60513,3.41109-31.17718a129.01579,129.01579,0,0,1,13.793-15.62654c5.55648-5.57935,9.03626-11.89411,9.70925-19.82009a27.59786,27.59786,0,0,1,2.02431-8.64111C53.0611,1.11946,60.27164.09488,64.08011,5.52123a26.3595,26.3595,0,0,1,4.007,10.97184C69.40621,25.29333,67.34921,33.70718,62.99489,42.38937Zm2.16291,49.8948.05532,1.39508a49.28308,49.28308,0,0,1-18.7854,1.25794c-1.49968-.14837-3.87168.78112-4.53946,1.95556-.80424,1.41443-.95064,4.17-.06169,5.35281a10.99826,10.99826,0,0,0,5.82,3.80606,33.28031,33.28031,0,0,0,22.45168-2.57981c3.41119-1.62565,5.55655-4.28729,4.79179-8.54664a6.85751,6.85751,0,0,1,.45659-4.13591c2.23331-4.21326,3.92971-8.41864,3.28062-13.38046-.15184-1.16057.89967-2.67949,1.76251-3.73526,2.91746-3.56975,3.45205-7.14305,1.425-11.45894a7.34571,7.34571,0,0,1,.34908-5.886c3.67924-6.39482,1.8043-11.16042-5.59362-11.34961-7.33025-.18744-14.71957.73242-22.02684,1.62578a10.02525,10.02525,0,0,0-5.68787,3.36248c-1.21828,1.40168-2.30753,4.11419-1.73184,5.56388a7.09877,7.09877,0,0,0,4.95816,3.75664c5.20372.49906,10.48722.14033,15.73878.18264,1.55388.01252,3.10607.235,4.659.36127l.03585,1.37775c-2.61713.29479-5.2274.7037-7.85277.86121-5.92891.35572-11.90924.24559-17.78158,1.00148-3.351.43135-6.34329,2.85207-6.0562,6.62315.2757,3.6215,3.15291,5.79576,6.74437,6.06006,4.65512.34257,9.34641.20593,14.02238.24856,2.97084.02709,5.94213.00507,8.91322.00507l.00656,1.41333a69.1001,69.1001,0,0,1-23.04184,1.20427C42.924,78.04466,39.198,80.04435,38.54143,83.711c-.68749,3.83959,1.85253,7.36995,6.46337,7.94972,4.629.582,9.34763.4681,14.02841.61287C61.07291,92.33666,63.11616,92.28417,65.1578,92.28417ZM46.249,59.85064c-3.27159-4.05565-3.0333-8.30746.606-11.74517,2.17917-2.05842,5.17441-3.98108,8.04025-4.42214,4.90557-.755,6.606-3.84042,7.86482-7.78646.648-2.03128,1.33434-4.05862,1.82664-6.12975,1.58185-6.65487,1.65279-13.4-.91142-19.72027a9.59,9.59,0,0,0-6.01152-5.04628c-3.17126-.644-4.86886,2.4141-5.60089,5.33125a51.17285,51.17285,0,0,0-1.3,7.56422c-.72635,7.60626-4.23474,13.76328-9.56827,19.0267-2.32925,2.29863-4.67806,4.57779-6.98552,6.89806-12.05156,12.11845-19.05529,28.32705-5.5966,44.85151.90292,1.10859,1.12018,2.77562,1.65634,4.18291l-.932.4592c-1.53209-1.64137-3.06418-3.28276-4.977-5.332a17.48344,17.48344,0,0,0,16.04158,17.49235c-2.54233-3.892-2.79982-7.75332.04424-11.38227-6.91568-7.4394-6.81959-9.63671.57263-17.88349C36.17557,68.84237,37.17388,65.60873,46.249,59.85064Z" transform="translate(-18.69479 -1.98542)"/><path class="cls-1" d="M65.1578,92.28417c-2.04164,0-4.08489.05249-6.12459-.0106-4.68078-.14477-9.39944-.03082-14.02841-.61287-4.61084-.57977-7.15086-4.11013-6.46337-7.94972.65654-3.66663,4.38261-5.66632,8.92812-5.08445a69.1001,69.1001,0,0,0,23.04184-1.20427l-.00656-1.41333c-2.97109,0-5.94238.022-8.91322-.00507-4.676-.04263-9.36726.094-14.02238-.24856-3.59146-.2643-6.46867-2.43856-6.74437-6.06006-.28709-3.77108,2.70518-6.1918,6.0562-6.62315,5.87234-.75589,11.85267-.64576,17.78158-1.00148,2.62537-.15751,5.23564-.56642,7.85277-.86121l-.03585-1.37775c-1.553-.12626-3.10516-.34875-4.659-.36127-5.25156-.04231-10.53506.31642-15.73878-.18264a7.09877,7.09877,0,0,1-4.95816-3.75664c-.57569-1.44969.51356-4.1622,1.73184-5.56388a10.02525,10.02525,0,0,1,5.68787-3.36248c7.30727-.89336,14.69659-1.81322,22.02684-1.62578,7.39792.18919,9.27286,4.95479,5.59362,11.34961a7.34571,7.34571,0,0,0-.34908,5.886c2.02709,4.31589,1.4925,7.88919-1.425,11.45894-.86284,1.05577-1.91435,2.57469-1.76251,3.73526.64909,4.96182-1.04731,9.1672-3.28062,13.38046A6.85751,6.85751,0,0,0,74.89,94.92517c.76476,4.25935-1.3806,6.921-4.79179,8.54664a33.28031,33.28031,0,0,1-22.45168,2.57981,10.99826,10.99826,0,0,1-5.82-3.80606c-.88895-1.18286-.74255-3.93838.06169-5.35281.66778-1.17444,3.03978-2.10393,4.53946-1.95556a49.28308,49.28308,0,0,0,18.7854-1.25794Z" transform="translate(-18.69479 -1.98542)"/><path class="cls-1" d="M46.249,59.85064c-9.07511,5.75809-10.07342,8.99173-5.23075,16.35838-7.39222,8.24678-7.48831,10.44409-.57263,17.88349-2.84406,3.62895-2.58657,7.49031-.04424,11.38227A17.48344,17.48344,0,0,1,24.35979,87.98243c1.91281,2.04923,3.4449,3.69062,4.977,5.332l.932-.4592c-.53616-1.40729-.75342-3.07432-1.65634-4.18291-13.45869-16.52446-6.455-32.73306,5.5966-44.85151,2.30746-2.32027,4.65627-4.59943,6.98552-6.89806,5.33353-5.26342,8.84192-11.42044,9.56827-19.0267a51.17285,51.17285,0,0,1,1.3-7.56422c.732-2.91715,2.42963-5.97527,5.60089-5.33125a9.59,9.59,0,0,1,6.01152,5.04628c2.56421,6.3203,2.49327,13.0654.91142,19.72027-.4923,2.07113-1.17863,4.09847-1.82664,6.12975-1.25883,3.946-2.95925,7.03146-7.86482,7.78646-2.86584.44106-5.86108,2.36372-8.04025,4.42214C43.21569,51.54318,42.9774,55.795,46.249,59.85064Z" transform="translate(-18.69479 -1.98542)"/></svg>