<svg id="Layer_1" data-name="Layer 1" xmlns="http://www.w3.org/2000/svg" width="85.39358" height="104.16343" viewBox="0 0 85.39358 104.16343">
  <defs>
    <style>
      .cls-1 {
        fill: #fff;
      }
    </style>
  </defs>
  <title>arrows-3</title>
  <g>
    <path d="M35.793,62.68641c-1.47154-7.08182-2.76352-14.20744-4.47607-21.2305-1.19535-4.902-3.033-9.6444-4.44128-14.4994a15.15129,15.15129,0,0,1-.55151-4.71884c.24667-6.51356,5.88148-9.53735,11.14951-5.68107,2.58215,1.89017,4.49959,4.79357,6.40849,7.45989,1.19746,1.67258,1.82007,3.75671,3.31181,5.53154q-.85372-6.1942-1.70442-12.38883c-.17935-1.32064-.38926-2.642-.47174-3.97008-.33148-5.33723,1.88889-9.03725,5.97559-10.04795,3.85288-.95286,7.32659,1.17479,9.65717,5.897.22446.4548.53222.86849.80972,1.3148,7.31945-5.53439,13.35968-3.82761,15.73887,5.27534,1.68179,6.43463,1.60933,13.32776,2.26057,19.45686.50449-1.44677,1.17848-3.74425,2.10154-5.93687,1.224-2.90746,2.83189-5.85105,6.56029-5.35406,3.57244.47621,5.6658,3.19233,5.93884,6.623.335,4.20873.86453,8.69622-.18871,12.66554-3.053,11.50567-4.39247,23.16307-5.4336,34.97115a37.36229,37.36229,0,0,1-4.97516,14.97557c-6.63278,11.39836-20.73517,16.14781-35.40246,13.19634-13.46876-2.71027-21.64222-10.79474-25.096-23.8249C20.42473,72.81936,17.51,63.48433,11.07989,55.61881c-1.92924-2.35992-2.91716-5.29823-.75735-8.09648,2.28363-2.95865,5.55607-3.70312,9.00078-2.65614,5.14486,1.56374,8.50147,5.319,10.92471,9.9434,1.40791,2.68679,2.63162,5.47009,3.93821,8.21Zm19.668,16.04716-1.19027.80747a16.59423,16.59423,0,0,0-2.22322-3.11611c-3.44776-3.046-6.69368-7.84218-10.61045-8.51456C33.5936,66.564,30.93434,61.60144,27.77086,55.59573c-1.8229-3.46071-5.67645-6.1563-9.17377-8.27593-1.34045-.81241-4.57015.482-6.25877,1.73383-.71137.52738-.29339,3.92471.68746,5.16916,6.27447,7.96079,9.33425,17.20147,11.85968,26.82,5.14415,19.59228,20.05476,25.77219,38.92,22.77949C76.38485,101.82672,84.434,91.61941,86.122,77.45861c1.14449-9.60126.2665-19.47566,4.0062-28.72979a15.0031,15.0031,0,0,0,1.184-5.03283,104.30421,104.30421,0,0,0-.18968-13.87412c-.1403-1.3519-2.19986-2.7517-3.68745-3.57119-.46656-.257-2.4137,1.08989-2.87513,2.07943-3.56474,7.64464-4.385,15.979-6.47382,24.2804a49.033,49.033,0,0,0-34.41969-3.2987c1.29614-2.46519,3.47948-4.65623,3.11109-6.26178a150.76154,150.76154,0,0,0-5.83785-18.95237,13.04387,13.04387,0,0,0-4.60305-5.39755c-1.29561-.943-3.725-1.51326-5.037-.91369a5.652,5.652,0,0,0-2.543,4.39632,37.93049,37.93049,0,0,0,1.60614,8.55942c2.13527,8.511,4.68184,16.93453,6.41749,25.52362.87214,4.3159,1.6295,7.92432,6.51963,9.18242a11.3044,11.3044,0,0,1,3.70519,2.3252A27.12747,27.12747,0,0,1,55.46092,78.73357ZM51.168,44.86682c2.267,0,4.77073-.096,7.26365.02749,2.40331.119,3.40018-1.03062,3.48878-3.27118.412-10.41871-.09739-20.73734-3.39815-30.743-1.086-3.292-3.03826-5.78816-6.826-5.52462-2.91518.20282-4.88143,3.74089-4.40662,7.90106C48.47736,23.66306,49.82967,34.05079,51.168,44.86682ZM74.70285,48.194c.60618-5.97728,1.36678-11.25952,1.62151-16.566.29956-6.24042.628-12.59617-2.87266-18.25359-1.48692-2.403-3.16964-5.04511-6.59362-3.88028-3.32363,1.13069-3.88808,4.15325-3.73879,7.21808.42717,8.77.91468,17.538,1.51382,26.29745a3.60171,3.60171,0,0,0,1.58452,2.692C68.781,46.70689,71.50764,47.29574,74.70285,48.194Z" transform="translate(-9.10046 -2.91829)"/>
    <path class="cls-1" d="M55.46092,78.73357A27.12747,27.12747,0,0,0,47.00513,67.7734a11.3044,11.3044,0,0,0-3.70519-2.3252c-4.89013-1.2581-5.64749-4.86652-6.51963-9.18242-1.73565-8.58909-4.28222-17.01258-6.41749-25.52362a37.93049,37.93049,0,0,1-1.60614-8.55942,5.652,5.652,0,0,1,2.543-4.39632c1.312-.59957,3.74134-.02928,5.037.91369a13.04387,13.04387,0,0,1,4.60305,5.39755A150.76154,150.76154,0,0,1,46.77751,43.05c.36839,1.60555-1.81495,3.79659-3.11109,6.26178a49.033,49.033,0,0,1,34.41969,3.2987c2.08883-8.30143,2.90908-16.63576,6.47382-24.2804.46143-.98954,2.40857-2.33644,2.87513-2.07943,1.48759.81949,3.54715,2.21929,3.68745,3.57119A104.30421,104.30421,0,0,1,91.31219,43.696a15.0031,15.0031,0,0,1-1.184,5.03283c-3.7397,9.25413-2.86171,19.12853-4.0062,28.72979-1.688,14.1608-9.73717,24.36811-22.31658,26.36365-18.86522,2.9927-33.77583-3.18721-38.92-22.77949-2.52543-9.61851-5.58521-18.85919-11.85968-26.82-.98085-1.24445-1.39883-4.64178-.68746-5.16916,1.68862-1.25186,4.91832-2.54624,6.25877-1.73383,3.49732,2.11963,7.35087,4.81522,9.17377,8.27593C30.93434,61.60144,33.5936,66.564,41.437,67.91037c3.91677.67238,7.16269,5.4686,10.61045,8.51456A16.59423,16.59423,0,0,1,54.27065,79.541Z" transform="translate(-9.10046 -2.91829)"/>
    <path class="cls-1" d="M51.168,44.86682c-1.33833-10.816-2.69064-21.20376-3.87835-31.61028-.47481-4.16017,1.49144-7.69824,4.40662-7.90106,3.78775-.26354,5.74,2.23258,6.826,5.52462,3.30076,10.00569,3.81017,20.32432,3.39815,30.743-.0886,2.24056-1.08547,3.39019-3.48878,3.27118C55.93873,44.77086,53.435,44.86682,51.168,44.86682Z" transform="translate(-9.10046 -2.91829)"/>
    <path class="cls-1" d="M74.70285,48.194c-3.19521-.89823-5.92188-1.48708-8.48522-2.49238a3.60171,3.60171,0,0,1-1.58452-2.692c-.59914-8.7595-1.08665-17.52744-1.51382-26.29745-.14929-3.06483.41516-6.08739,3.73879-7.21808,3.424-1.16483,5.1067,1.47724,6.59362,3.88028,3.50063,5.65742,3.17222,12.01317,2.87266,18.25359C76.06963,36.93445,75.309,42.21669,74.70285,48.194Z" transform="translate(-9.10046 -2.91829)"/>
  </g>
</svg>
