<?xml version="1.0" encoding="utf-8"?>
<!-- Generator: Adobe Illustrator 22.1.0, SVG Export Plug-In . SVG Version: 6.00 Build 0)  -->
<svg version="1.1" id="Layer_1" xmlns="http://www.w3.org/2000/svg" xmlns:xlink="http://www.w3.org/1999/xlink" x="0px" y="0px"
	 viewBox="0 0 20 20" style="enable-background:new 0 0 20 20;" xml:space="preserve">
<style type="text/css">
	.st0{fill:#7DA63F;}
</style>
<path class="st0" d="M14.9,5.2c1.4,0.3,2.6,1.1,3.4,2.2c0.9,1.3,1.3,2.7,1.1,4.3c-0.2,1.5-0.9,2.7-2.2,3.6l-5.1,3.8
	c-0.9,0.7-1.6,0.8-2.2,0.4c-0.2-0.2-0.5-0.5-0.9-0.9l-8-10.9C0.8,7.5,0.7,7.3,0.6,7.1C0.5,6.9,0.4,6.7,0.4,6.5
	C0.3,6,0.7,5.4,1.5,4.8l4.9-3.6C7.7,0.3,9,0,10.4,0.2c1.5,0.2,2.6,0.9,3.5,2.1C14.6,3.2,14.9,4.2,14.9,5.2z M14.7,9.8
	c-0.2-0.3-0.4-0.5-0.7-0.7C13.9,9,13.7,9,13.4,9c-0.3,0.1-0.7,0.3-1.2,0.7c-0.5,0.3-0.9,0.5-1.3,0.5c-0.4,0-0.8-0.3-1.2-0.9
	c-0.4-0.6-0.6-1-0.5-1.4c0.1-0.4,0.4-0.7,1-1.2C10.8,6.4,11,6,10.9,5.7c-0.1-0.2-0.2-0.4-0.5-0.7C10.2,4.6,10,4.4,9.7,4.5
	C9.3,4.5,9,4.7,8.5,5L5.8,7l5.5,7.4l3.2-2.4C15.3,11.4,15.4,10.7,14.7,9.8z"/>
</svg>
