<?xml version="1.0" encoding="utf-8"?>
<!-- Generator: Adobe Illustrator 22.1.0, SVG Export Plug-In . SVG Version: 6.00 Build 0)  -->
<svg version="1.1" id="Layer_1" xmlns="http://www.w3.org/2000/svg" xmlns:xlink="http://www.w3.org/1999/xlink" x="0px" y="0px"
	 viewBox="0 0 20 20" style="enable-background:new 0 0 20 20;" xml:space="preserve">
<style type="text/css">
	.st0{fill:#49924F;}
</style>
<path class="st0" d="M10.5,15.1l0.6,0c0.7,0,1.1,0.1,1.3,0.2c0.5,0.3,0.7,1,0.7,2.1c0,0.7-0.1,1.2-0.3,1.5c-0.2,0.3-0.4,0.5-0.8,0.6
	c-0.3,0.1-0.7,0.1-1,0.1c-0.4,0-0.7,0-1,0c-0.3,0-0.9-0.1-1.8-0.3c-0.9-0.2-1.7-0.5-2.4-0.9c-0.7-0.4-1.3-0.9-1.9-1.5
	c-0.6-0.6-1.1-1.4-1.6-2.2c-0.5-0.9-0.9-1.8-1.1-2.8c-0.2-1-0.2-2.1,0-3.3c0.2-1.2,0.6-2.4,1.3-3.5C3.2,3.8,4,2.9,4.9,2.2
	C5.8,1.5,6.8,1,7.7,0.7c1-0.3,1.9-0.4,2.9-0.3c1.9,0.1,3.6,0.5,5,1.4c0.7,0.4,1.3,0.9,1.9,1.6c0.6,0.6,1,1.2,1.2,1.6l0.3,0.6
	c0.2,0.3,0.3,0.6,0.4,0.8c0.2,0.5,0.2,1-0.1,1.4c-0.2,0.4-0.6,0.7-1.2,0.9c-1,0.4-1.8,0.5-2.2,0.3c-0.3-0.2-0.5-0.5-0.8-1.2
	c-0.3-0.9-1-1.6-2-2.2c-1-0.6-2.1-0.8-3.4-0.7C9.2,5,8.6,5.2,7.9,5.6C7.3,6,6.7,6.6,6.3,7.4C5.9,8.1,5.6,8.9,5.5,9.6
	c-0.1,0.8,0,1.4,0.3,2.1c0.5,1.2,1.2,2.1,2.2,2.6c0.5,0.3,0.9,0.5,1.4,0.6C9.9,15,10.3,15.1,10.5,15.1z"/>
</svg>
