<?xml version="1.0" encoding="utf-8"?>
<!-- Generator: Adobe Illustrator 22.1.0, SVG Export Plug-In . SVG Version: 6.00 Build 0)  -->
<svg version="1.1" id="Layer_1" xmlns="http://www.w3.org/2000/svg" xmlns:xlink="http://www.w3.org/1999/xlink" x="0px" y="0px"
	 viewBox="0 0 20 20" style="enable-background:new 0 0 20 20;" xml:space="preserve">
<style type="text/css">
	.st0{fill:#298481;}
</style>
<path class="st0" d="M0.8,9.6l2.1-3.7c1.1-2,2.7-3.3,5-4c2.2-0.7,4.4-0.5,6.4,0.6c2.1,1.1,3.4,2.8,4.1,5.1c0.7,2.3,0.5,4.4-0.7,6.5
	l-2,3.7c-0.5,0.8-0.9,1.2-1.4,1.3c-0.4,0-0.9-0.1-1.4-0.5L1.6,12.4C1.3,12.3,1.1,12.1,1,12c-0.1-0.1-0.3-0.3-0.4-0.5
	C0.3,11.1,0.4,10.5,0.8,9.6z M14.6,8.8c-0.3-1.2-1-2.1-2.1-2.7c-1.1-0.6-2.2-0.7-3.4-0.4c-1.2,0.4-2,1.1-2.6,2.1l-1.1,2l7.7,4.2
	l1.1-2C14.7,11.1,14.9,10,14.6,8.8z"/>
</svg>
