<?xml version="1.0" encoding="utf-8"?>
<!-- Generator: Adobe Illustrator 22.1.0, SVG Export Plug-In . SVG Version: 6.00 Build 0)  -->
<svg version="1.1" id="Layer_1" xmlns="http://www.w3.org/2000/svg" xmlns:xlink="http://www.w3.org/1999/xlink" x="0px" y="0px"
	 viewBox="0 0 20 20" style="enable-background:new 0 0 20 20;" xml:space="preserve">
<style type="text/css">
	.st0{fill:#316E99;}
</style>
<path class="st0" d="M7.2,12.9l6,2.1c0.3,0.1,0.5,0.2,0.7,0.3c0.1,0.1,0.3,0.2,0.5,0.4c0.3,0.3,0.3,0.9,0,1.7
	c-0.3,0.9-0.8,1.4-1.3,1.4c-0.2,0-0.6-0.1-1.1-0.2l-7.8-2.7c-0.9-0.3-1.4-0.8-1.3-1.3c0-0.2,0.1-0.6,0.2-1L7,2.6
	c0.2-0.7,0.5-1.1,0.8-1.2c0.3-0.2,0.8-0.1,1.5,0.1l7.7,2.7c0.3,0.1,0.5,0.2,0.7,0.3c0.1,0.1,0.3,0.2,0.5,0.4c0.3,0.3,0.3,0.9,0,1.7
	c-0.3,0.9-0.8,1.4-1.3,1.4c-0.2,0-0.6-0.1-1.1-0.2l-6-2.1l-0.7,2L13,8.9c0.3,0.1,0.5,0.2,0.7,0.3c0.1,0.1,0.3,0.2,0.5,0.4
	c0.3,0.3,0.3,0.9,0,1.7c-0.3,0.9-0.8,1.4-1.3,1.3c-0.2,0-0.6-0.1-1.1-0.2L7.9,11L7.2,12.9z"/>
</svg>
