<?xml version="1.0" encoding="utf-8"?>
<!-- Generator: Adobe Illustrator 22.1.0, SVG Export Plug-In . SVG Version: 6.00 Build 0)  -->
<svg version="1.1" id="Layer_1" xmlns="http://www.w3.org/2000/svg" xmlns:xlink="http://www.w3.org/1999/xlink" x="0px" y="0px"
	 viewBox="0 0 20 20" style="enable-background:new 0 0 20 20;" xml:space="preserve">
<style type="text/css">
	.st0{fill:#586CA1;}
</style>
<path class="st0" d="M13.8,2.1c0.3,0,0.5-0.1,0.7-0.1c0.2,0,0.3,0,0.5,0.1c0.2,0.1,0.4,0.2,0.5,0.5c0.1,0.2,0.2,0.6,0.3,1
	c0.1,0.4,0.1,0.8,0,1c0,0.3-0.2,0.5-0.4,0.6c-0.2,0.1-0.4,0.2-0.5,0.3c-0.2,0-0.4,0.1-0.7,0.1L8,6.5l0.3,2l4-0.5
	c0.3,0,0.6-0.1,0.7-0.1c0.2,0,0.3,0,0.6,0.1c0.4,0.2,0.6,0.7,0.7,1.5c0.1,0.9-0.1,1.5-0.5,1.8c-0.2,0.1-0.5,0.2-1,0.2l-3.9,0.5
	l0.5,3.8c0,0.3,0.1,0.6,0.1,0.7c0,0.2,0,0.3-0.1,0.5c-0.1,0.4-0.6,0.6-1.5,0.8C6.8,18,6.2,17.8,6,17.4c-0.1-0.2-0.2-0.5-0.3-1
	L4.3,5.2C4.2,4.5,4.2,4,4.5,3.7c0.2-0.3,0.7-0.5,1.4-0.6L13.8,2.1z"/>
</svg>
