<?xml version="1.0" encoding="utf-8"?>
<!-- Generator: Adobe Illustrator 22.1.0, SVG Export Plug-In . SVG Version: 6.00 Build 0)  -->
<svg version="1.1" id="Layer_1" xmlns="http://www.w3.org/2000/svg" xmlns:xlink="http://www.w3.org/1999/xlink" x="0px" y="0px"
	 viewBox="0 0 20 20" style="enable-background:new 0 0 20 20;" xml:space="preserve">
<style type="text/css">
	.st0{fill:#7E627E;}
</style>
<path class="st0" d="M11.1,8.7l3.8,0.7c0.8,0.2,1.2,0.4,1.3,0.9c0.1,0.3,0.1,0.7,0,1.3l-0.8,4.8c-0.1,0.5-0.4,0.9-0.8,1.2
	c-1.4,1.1-3.4,1.4-5.8,1C6.7,18,4.9,16.9,3.6,15c-1.3-1.9-1.8-4-1.4-6.3s1.5-4.1,3.4-5.3C7.5,2.1,9.6,1.6,11.8,2
	c1.7,0.3,3.2,1.1,4.5,2.5c0.3,0.4,0.5,0.7,0.4,1.1c-0.1,0.4-0.3,0.7-0.7,1.1c-0.7,0.7-1.3,1-1.7,0.9c-0.3,0-0.7-0.3-1.2-0.8
	c-0.5-0.5-1.2-0.8-2.1-1c-1.1-0.2-2.1,0-3.1,0.7C6.9,7.1,6.3,8,6.1,9.3c-0.2,1.3,0,2.4,0.8,3.4c0.7,1,1.6,1.6,2.7,1.8
	c0.8,0.1,1.5,0.1,2.2,0l0.4-2.4l-1.7-0.3c-0.4-0.1-0.8-0.2-0.9-0.3c-0.2-0.1-0.3-0.3-0.3-0.6c0-0.2,0-0.5,0.1-0.9
	c0.1-0.4,0.2-0.7,0.3-0.9C9.7,8.9,9.8,8.7,10,8.7C10.3,8.6,10.7,8.6,11.1,8.7z"/>
</svg>
