<?xml version="1.0" encoding="utf-8"?>
<!-- Generator: Adobe Illustrator 22.1.0, SVG Export Plug-In . SVG Version: 6.00 Build 0)  -->
<svg version="1.1" id="Layer_1" xmlns="http://www.w3.org/2000/svg" xmlns:xlink="http://www.w3.org/1999/xlink" x="0px" y="0px"
	 viewBox="0 0 20 20" style="enable-background:new 0 0 20 20;" xml:space="preserve">
<style type="text/css">
	.st0{fill:#A65B7A;}
</style>
<path class="st0" d="M12.1,2.4c0.1-0.2,0.3-0.4,0.5-0.6c0.3-0.1,0.6-0.2,1-0.3c0.4-0.1,0.8-0.1,1,0c0.3,0,0.5,0.1,0.6,0.2
	c0.1,0.1,0.3,0.2,0.4,0.4c0.1,0.2,0.2,0.6,0.3,1.1l1.9,12.1c0.1,0.3,0.1,0.6,0.1,0.8c0,0.2,0,0.4-0.1,0.6c-0.1,0.4-0.7,0.7-1.6,0.9
	c-1,0.2-1.7,0-1.9-0.5c-0.1-0.2-0.2-0.6-0.3-1.1l-0.7-4.4l-5.8,0.9l0.7,4.5c0.1,0.3,0.1,0.6,0.1,0.8c0,0.2,0,0.4-0.1,0.6
	c-0.1,0.4-0.7,0.7-1.6,0.9c-1,0.2-1.7,0-1.9-0.5c-0.1-0.2-0.2-0.6-0.3-1.1L2.4,5.3C2.3,5,2.3,4.7,2.3,4.5c0-0.2,0-0.4,0.1-0.6
	C2.6,3.5,3.1,3.2,4,3.1c1-0.2,1.7,0,1.9,0.5c0.1,0.2,0.2,0.6,0.3,1.1L7,9.2l5.8-0.9L12,3.8C12,3.4,12,3.2,12,3
	C12,2.8,12,2.6,12.1,2.4z"/>
</svg>
