<?xml version="1.0" encoding="utf-8"?>
<!-- Generator: Adobe Illustrator 22.1.0, SVG Export Plug-In . SVG Version: 6.00 Build 0)  -->
<svg version="1.1" id="Layer_1" xmlns="http://www.w3.org/2000/svg" xmlns:xlink="http://www.w3.org/1999/xlink" x="0px" y="0px"
	 viewBox="0 0 80 20" style="enable-background:new 0 0 80 20;" xml:space="preserve">
<g>
	<path d="M13.5,2.2c0.1-0.2,0.3-0.4,0.6-0.5c0.3-0.1,0.7-0.1,1.1-0.1c0.4,0,0.8,0,1.1,0.1c0.3,0.1,0.5,0.2,0.6,0.3
		c0.1,0.1,0.2,0.3,0.3,0.5c0.1,0.3,0.1,0.7,0.1,1.2v12.7c0,0.4,0,0.6,0,0.8c0,0.2-0.1,0.4-0.2,0.6c-0.2,0.4-0.8,0.6-1.8,0.6
		c-1.1,0-1.7-0.3-1.9-0.8c-0.1-0.3-0.1-0.7-0.1-1.2v-4.7H7.2v4.7c0,0.4,0,0.6,0,0.8s-0.1,0.4-0.2,0.6c-0.2,0.4-0.8,0.6-1.8,0.6
		c-1.1,0-1.7-0.3-1.9-0.8c-0.1-0.3-0.1-0.7-0.1-1.2V3.6c0-0.4,0-0.6,0-0.8c0-0.2,0.1-0.4,0.2-0.6c0.2-0.4,0.8-0.6,1.8-0.6
		c1.1,0,1.7,0.3,1.9,0.8c0.1,0.3,0.1,0.7,0.1,1.2v4.7h6.1V3.6c0-0.4,0-0.6,0-0.8C13.3,2.6,13.4,2.4,13.5,2.2z"/>
	<path d="M23.2,14.3h7.1c0.4,0,0.6,0,0.8,0c0.2,0,0.4,0.1,0.6,0.2c0.4,0.2,0.6,0.8,0.6,1.8c0,1.1-0.3,1.7-0.8,1.9
		c-0.3,0.1-0.7,0.1-1.2,0.1h-9.1c-1.1,0-1.7-0.3-1.9-0.9c-0.1-0.2-0.1-0.6-0.1-1.2V3.6c0-0.8,0.1-1.3,0.4-1.6
		c0.3-0.3,0.8-0.4,1.7-0.4h9c0.4,0,0.6,0,0.8,0c0.2,0,0.4,0.1,0.6,0.2c0.4,0.2,0.6,0.8,0.6,1.8c0,1.1-0.3,1.7-0.8,1.9
		c-0.3,0.1-0.7,0.1-1.2,0.1h-7v2.3h4.5c0.4,0,0.6,0,0.8,0c0.2,0,0.4,0.1,0.6,0.2c0.4,0.2,0.6,0.8,0.6,1.8c0,1.1-0.3,1.7-0.9,1.9
		c-0.3,0.1-0.7,0.1-1.2,0.1h-4.5V14.3z"/>
	<path d="M37.9,15h6.2c0.5,0,0.9,0.1,1.1,0.2c0.2,0.1,0.4,0.3,0.5,0.5c0.1,0.2,0.1,0.6,0.1,1c0,0.4,0,0.7-0.1,1
		c-0.1,0.2-0.2,0.4-0.4,0.5c-0.3,0.2-0.7,0.2-1.2,0.2h-8.3c-1.1,0-1.7-0.3-1.9-0.9c-0.1-0.2-0.1-0.6-0.1-1.2V3.6c0-0.4,0-0.6,0-0.8
		c0-0.2,0.1-0.4,0.2-0.6c0.2-0.4,0.8-0.6,1.8-0.6c1.1,0,1.7,0.3,1.9,0.8c0.1,0.3,0.1,0.7,0.1,1.2V15z"/>
	<path d="M51.3,15h6.2c0.5,0,0.9,0.1,1.1,0.2c0.2,0.1,0.4,0.3,0.5,0.5c0.1,0.2,0.1,0.6,0.1,1c0,0.4,0,0.7-0.1,1
		c-0.1,0.2-0.2,0.4-0.4,0.5c-0.3,0.2-0.7,0.2-1.2,0.2h-8.3c-1.1,0-1.7-0.3-1.9-0.9c-0.1-0.2-0.1-0.6-0.1-1.2V3.6c0-0.4,0-0.6,0-0.8
		c0-0.2,0.1-0.4,0.2-0.6c0.2-0.4,0.8-0.6,1.8-0.6c1.1,0,1.7,0.3,1.9,0.8c0.1,0.3,0.1,0.7,0.1,1.2V15z"/>
	<path d="M68.6,1.4c2.3,0,4.2,0.8,5.9,2.5C76.2,5.4,77,7.5,77,9.9s-0.8,4.5-2.4,6.2c-1.6,1.7-3.5,2.6-5.9,2.6
		c-2.3,0-4.3-0.8-5.9-2.5c-1.6-1.7-2.4-3.7-2.4-6c0-1.3,0.2-2.5,0.7-3.6c0.5-1.1,1.1-2,1.8-2.8C63.7,3,64.5,2.4,65.5,2
		C66.5,1.6,67.6,1.4,68.6,1.4z M64.4,10c0,1.4,0.4,2.5,1.3,3.3c0.9,0.8,1.9,1.3,2.9,1.3c1.1,0,2.1-0.4,2.9-1.2
		c0.9-0.8,1.3-1.9,1.3-3.3c0-1.4-0.4-2.5-1.3-3.3c-0.9-0.8-1.9-1.3-2.9-1.3c-1.1,0-2.1,0.4-2.9,1.3C64.9,7.5,64.4,8.6,64.4,10z"/>
</g>
</svg>
