<?xml version="1.0" encoding="utf-8"?>
<!-- Generator: Adobe Illustrator 22.1.0, SVG Export Plug-In . SVG Version: 6.00 Build 0)  -->
<svg version="1.1" id="Layer_1" xmlns="http://www.w3.org/2000/svg" xmlns:xlink="http://www.w3.org/1999/xlink" x="0px" y="0px"
	 viewBox="0 0 20 20" style="enable-background:new 0 0 20 20;" xml:space="preserve">
<style type="text/css">
	.st0{fill:#DA626E;}
</style>
<path class="st0" d="M12,2.3c0.2-0.4,0.3-0.7,0.4-0.8C12.6,1.3,12.8,1.2,13,1c0.4-0.3,1.2-0.2,2.2,0.3c1.1,0.6,1.7,1.2,1.6,1.9
	c-0.1,0.3-0.2,0.8-0.5,1.3L9.7,18.1c-0.2,0.4-0.3,0.7-0.5,0.8c-0.1,0.2-0.3,0.3-0.5,0.5c-0.4,0.3-1.2,0.2-2.2-0.3
	c-1.1-0.6-1.7-1.2-1.6-1.9C5,17,5.1,16.6,5.4,16L12,2.3z"/>
</svg>
