<?xml version="1.0" encoding="utf-8"?>
<!-- Generator: Adobe Illustrator 22.1.0, SVG Export Plug-In . SVG Version: 6.00 Build 0)  -->
<svg version="1.1" id="Layer_1" xmlns="http://www.w3.org/2000/svg" xmlns:xlink="http://www.w3.org/1999/xlink" x="0px" y="0px"
	 viewBox="0 0 20 20" style="enable-background:new 0 0 20 20;" xml:space="preserve">
<style type="text/css">
	.st0{fill:#EC5F4F;}
</style>
<path class="st0" d="M15.3,1.2c0.6,0.1,1.1,0.2,1.4,0.3c0.3,0.1,0.5,0.4,0.6,0.6c0.1,0.4,0.2,0.9,0.1,1.6l-1.2,9.6
	c-0.2,1.7-1,3.2-2.5,4.4c-1.4,1.2-3.1,1.6-5.1,1.4c-1.1-0.1-2-0.5-2.8-1.1c-0.7-0.5-1.2-0.9-1.5-1.3l-0.2-0.2
	c-0.5-0.7-0.7-1.2-0.7-1.7c0.1-0.4,0.4-0.9,1.1-1.4c0.7-0.5,1.2-0.8,1.7-0.7c0.4,0.1,0.9,0.4,1.4,1c0.5,0.6,1,1,1.7,1
	c0.6,0.1,1.2-0.1,1.7-0.5c0.5-0.4,0.7-0.9,0.8-1.6L13,3.4c0.1-1,0.4-1.6,0.7-1.9C14.2,1.2,14.7,1.2,15.3,1.2z"/>
</svg>
