<?xml version="1.0" encoding="utf-8"?>
<!-- Generator: Adobe Illustrator 22.1.0, SVG Export Plug-In . SVG Version: 6.00 Build 0)  -->
<svg version="1.1" id="Layer_1" xmlns="http://www.w3.org/2000/svg" xmlns:xlink="http://www.w3.org/1999/xlink" x="0px" y="0px"
	 viewBox="0 0 20 20" style="enable-background:new 0 0 20 20;" xml:space="preserve">
<style type="text/css">
	.st0{fill:#EE6E30;}
</style>
<path class="st0" d="M10.7,9.3c3,0.7,5.2,1.3,6.6,1.7c0.7,0.2,1.1,0.5,1.3,0.8c0.2,0.3,0.2,0.9-0.1,1.6c-0.2,0.7-0.5,1.2-0.8,1.4
	c-0.3,0.2-0.9,0.2-1.6-0.1l-7-2.3l2.2,3.7c0.2,0.3,0.3,0.5,0.4,0.7c0.1,0.2,0.1,0.3,0.1,0.6c0,0.4-0.4,0.9-1.2,1.4
	c-0.9,0.5-1.5,0.6-2,0.2c-0.2-0.2-0.4-0.5-0.7-0.9L1.6,7.6C1.4,7.3,1.3,7.1,1.2,6.9C1.2,6.7,1.1,6.5,1.1,6.3c0-0.4,0.4-0.9,1.2-1.4
	c0.9-0.5,1.5-0.6,2-0.2C4.5,4.8,4.7,5.1,5,5.6l2.2,3.6c0.6-3,1-5.4,1.3-7.2c0.1-0.8,0.4-1.3,0.7-1.5c0.3-0.2,0.9-0.2,1.6-0.1
	c0.8,0.1,1.2,0.4,1.4,0.7c0.2,0.3,0.2,0.8,0.1,1.5c-0.2,1.3-0.7,3.1-1.3,5.5L10.7,9.3z"/>
</svg>
