<?xml version="1.0" encoding="utf-8"?>
<!-- Generator: Adobe Illustrator 22.1.0, SVG Export Plug-In . SVG Version: 6.00 Build 0)  -->
<svg version="1.1" id="Layer_1" xmlns="http://www.w3.org/2000/svg" xmlns:xlink="http://www.w3.org/1999/xlink" x="0px" y="0px"
	 viewBox="0 0 120 120" style="enable-background:new 0 0 120 120;" xml:space="preserve">
<style type="text/css">
	.st0{fill:#EC5F4F;}
</style>
<path class="st0" d="M56.2,55.7c0-0.2,0.2-0.3,0.4-0.2c0.5,0.3,1,0.6,1.5,0.9c0.1,0.1,0.2,0.1,0.4,0.1c1,0,2,0,3,0
	c0.1,0,0.3,0,0.4-0.1c0.5-0.3,1-0.6,1.5-0.9c0.2-0.1,0.4,0,0.4,0.2c0,0.1,0,0.3,0,0.4c0,1.2,0.1,2.4,0.1,3.6c0,1.2-0.5,2-1.6,2.4
	c-1,0.4-2,0.5-3,0.4c-0.7-0.1-1.4-0.2-2-0.6c-0.8-0.5-1.2-1.2-1.2-2c0-1.3,0.1-2.5,0.1-3.8C56.2,56,56.2,55.8,56.2,55.7z M59.6,60.1
	c0.1,0.2,0,0.4-0.2,0.4c0,0-0.1,0-0.1,0c-0.1,0-0.2-0.2-0.2-0.3c-0.1-0.1-0.1-0.3-0.3-0.2c-0.2,0-0.2,0.2-0.2,0.3
	c0,0.3,0.2,0.5,0.4,0.6c0.3,0.2,0.6,0.1,0.9,0c0.1,0,0.2,0,0.3,0c0.1,0,0.1,0.1,0.2,0.1c0.5,0.2,1-0.2,1.1-0.7c0-0.2,0-0.3-0.2-0.4
	c-0.2,0-0.2,0.1-0.3,0.3c0,0.1-0.2,0.3-0.3,0.3c0,0,0,0-0.1,0c-0.2,0-0.3-0.2-0.2-0.4c0-0.1,0-0.2-0.1-0.2c-0.2-0.1-0.5-0.1-0.7,0
	C59.6,60,59.6,60,59.6,60.1z M58.1,59.2c0.3,0,0.5-0.2,0.5-0.4c0-0.3-0.2-0.5-0.5-0.5c-0.3,0-0.5,0.2-0.5,0.5
	C57.6,59,57.8,59.2,58.1,59.2z M62.4,58.8c0-0.3-0.2-0.5-0.5-0.5c-0.2,0-0.5,0.2-0.5,0.5c0,0.2,0.2,0.5,0.5,0.5
	C62.2,59.2,62.4,59,62.4,58.8z"/>
</svg>
