<?xml version="1.0" encoding="utf-8"?>
<!-- Generator: Adobe Illustrator 22.1.0, SVG Export Plug-In . SVG Version: 6.00 Build 0)  -->
<svg version="1.1" id="Layer_1" xmlns="http://www.w3.org/2000/svg" xmlns:xlink="http://www.w3.org/1999/xlink" x="0px" y="0px"
	 viewBox="0 0 100 50" style="enable-background:new 0 0 100 50;" xml:space="preserve">
<style type="text/css">
	.st0{fill:#298481;}
	.st1{fill:#586CA1;}
	.st2{fill:#EE8423;}
	.st3{fill:#EC5F4F;}
	.st4{fill:#A65B7A;}
	.st5{fill:#7E627E;}
	.st6{fill:#49924F;}
	.st7{fill:#ECB820;}
	.st8{fill:#316E99;}
	.st9{fill:#DA626E;}
	.st10{fill:#7DA63F;}
</style>
<path class="st0" d="M5,19.9h1.9c0.4,0,0.6,0.1,0.7,0.3c0.1,0.1,0.1,0.3,0.1,0.6v2.4c0,0.2-0.1,0.5-0.3,0.7c-0.6,0.6-1.5,1-2.8,1
	c-1.1,0-2.1-0.4-2.9-1.2c-0.8-0.8-1.2-1.8-1.2-3c0-1.2,0.4-2.2,1.2-2.9c0.8-0.8,1.8-1.2,2.9-1.2c0.9,0,1.7,0.3,2.5,0.9
	c0.2,0.1,0.3,0.3,0.3,0.5c0,0.2-0.1,0.4-0.3,0.6c-0.3,0.4-0.5,0.6-0.8,0.6c-0.1,0-0.4-0.1-0.7-0.3c-0.3-0.2-0.7-0.3-1.1-0.3
	c-0.6,0-1.1,0.2-1.5,0.6c-0.4,0.4-0.7,0.9-0.7,1.5c0,0.6,0.2,1.2,0.7,1.6C3.6,22.8,4.1,23,4.7,23c0.4,0,0.8-0.1,1.1-0.2v-1.2H4.9
	c-0.2,0-0.4,0-0.5-0.1c-0.1-0.1-0.2-0.1-0.2-0.3c0-0.1,0-0.3,0-0.5c0-0.2,0-0.4,0-0.5c0-0.1,0.1-0.2,0.2-0.2C4.6,20,4.7,19.9,5,19.9
	z"/>
<path class="st1" d="M15.1,23.4c0.1,0.3,0.2,0.5,0.2,0.6c0,0.3-0.2,0.5-0.7,0.7c-0.2,0.1-0.4,0.2-0.6,0.2c-0.1,0-0.3,0-0.4-0.1
	c-0.1-0.1-0.2-0.1-0.2-0.2c-0.1-0.1-0.4-0.8-0.9-2l-0.3,0h-1.4v1.3c0,0.2,0,0.3,0,0.4c0,0.1,0,0.2-0.1,0.3c-0.1,0.2-0.4,0.3-0.9,0.3
	c-0.5,0-0.8-0.1-0.9-0.4c0-0.1-0.1-0.3-0.1-0.6v-6.1c0-0.2,0-0.3,0-0.4c0-0.1,0-0.2,0.1-0.3c0.1-0.2,0.4-0.3,0.9-0.3h2.4
	c0.6,0,1.3,0.2,1.9,0.7c0.3,0.2,0.5,0.5,0.7,0.9c0.2,0.4,0.3,0.8,0.3,1.3c0,0.8-0.3,1.5-0.8,2.1C14.5,22.1,14.8,22.7,15.1,23.4z
	 M10.9,20.6h1.4c0.2,0,0.4-0.1,0.6-0.2c0.2-0.2,0.3-0.4,0.3-0.7c0-0.3-0.1-0.6-0.3-0.7c-0.2-0.2-0.4-0.2-0.7-0.2h-1.4V20.6z"/>
<path class="st2" d="M18.6,22.9H22c0.2,0,0.3,0,0.4,0c0.1,0,0.2,0,0.3,0.1c0.2,0.1,0.3,0.4,0.3,0.9c0,0.5-0.1,0.8-0.4,0.9
	c-0.1,0-0.3,0.1-0.6,0.1h-4.4c-0.5,0-0.8-0.1-0.9-0.4c0-0.1-0.1-0.3-0.1-0.6v-6.2c0-0.4,0.1-0.6,0.2-0.8c0.1-0.1,0.4-0.2,0.8-0.2H22
	c0.2,0,0.3,0,0.4,0c0.1,0,0.2,0,0.3,0.1c0.2,0.1,0.3,0.4,0.3,0.9c0,0.5-0.1,0.8-0.4,0.9c-0.1,0-0.3,0.1-0.6,0.1h-3.4v1.1h2.2
	c0.2,0,0.3,0,0.4,0c0.1,0,0.2,0,0.3,0.1c0.2,0.1,0.3,0.4,0.3,0.9c0,0.5-0.1,0.8-0.4,0.9c-0.1,0-0.3,0.1-0.6,0.1h-2.2V22.9z"/>
<path class="st3" d="M26.2,22.7h3.4c0.2,0,0.3,0,0.4,0c0.1,0,0.2,0,0.3,0.1c0.2,0.1,0.3,0.4,0.3,0.9c0,0.5-0.1,0.8-0.4,0.9
	c-0.1,0-0.3,0.1-0.6,0.1h-4.4c-0.5,0-0.8-0.1-0.9-0.4c0-0.1-0.1-0.3-0.1-0.6v-6.2c0-0.4,0.1-0.6,0.2-0.8c0.1-0.1,0.4-0.2,0.8-0.2
	h4.4c0.2,0,0.3,0,0.4,0c0.1,0,0.2,0,0.3,0.1c0.2,0.1,0.3,0.4,0.3,0.9c0,0.5-0.1,0.8-0.4,0.9c-0.1,0-0.3,0.1-0.6,0.1h-3.4v1.1h2.2
	c0.2,0,0.3,0,0.4,0c0.1,0,0.2,0,0.3,0.1c0.2,0.1,0.3,0.4,0.3,0.9c0,0.5-0.1,0.8-0.4,0.9c-0.1,0-0.3,0.1-0.6,0.1h-2.2V22.7z"/>
<path class="st4" d="M32.5,16.5h6.2c0.2,0,0.4,0,0.5,0.1c0.1,0.1,0.2,0.1,0.2,0.3c0,0.1,0.1,0.3,0.1,0.5c0,0.2,0,0.3-0.1,0.5
	c0,0.1-0.1,0.2-0.2,0.2c-0.1,0.1-0.3,0.1-0.6,0.1h-2.1v5.6c0,0.2,0,0.3,0,0.4c0,0.1,0,0.2-0.1,0.3c-0.1,0.1-0.2,0.2-0.3,0.2
	c-0.1,0-0.3,0.1-0.6,0.1c-0.2,0-0.4,0-0.5-0.1c-0.1,0-0.2-0.1-0.3-0.2c-0.1-0.1-0.1-0.2-0.1-0.3c0-0.1,0-0.2,0-0.4v-5.6h-2.1
	c-0.2,0-0.4,0-0.5-0.1c-0.1-0.1-0.2-0.1-0.2-0.3c0-0.1-0.1-0.3-0.1-0.5c0-0.2,0-0.3,0.1-0.5c0-0.1,0.1-0.2,0.2-0.2
	C32.1,16.6,32.3,16.5,32.5,16.5z"/>
<path class="st5" d="M45,23.5c-0.2-0.2-0.3-0.4-0.3-0.6s0.2-0.4,0.5-0.7c0.2-0.2,0.4-0.3,0.6-0.3c0.2,0,0.5,0.2,0.9,0.6
	c0.1,0.1,0.3,0.2,0.4,0.4c0.2,0.1,0.4,0.2,0.5,0.2c0.7,0,1-0.3,1-0.8c0-0.2-0.1-0.3-0.3-0.4c-0.2-0.1-0.4-0.2-0.7-0.2
	c-0.3-0.1-0.6-0.1-0.9-0.2c-0.3-0.1-0.6-0.2-0.9-0.4c-0.3-0.2-0.5-0.4-0.7-0.7c-0.2-0.3-0.3-0.7-0.3-1.2c0-0.6,0.2-1.2,0.7-1.7
	c0.5-0.5,1.1-0.7,2-0.7c0.4,0,0.8,0.1,1.2,0.2c0.4,0.1,0.6,0.2,0.8,0.3l0.3,0.2c0.2,0.2,0.3,0.4,0.3,0.5c0,0.1-0.1,0.4-0.3,0.6
	c-0.3,0.4-0.5,0.6-0.8,0.6c-0.2,0-0.3-0.1-0.6-0.2c0,0-0.1-0.1-0.1-0.1c-0.1-0.1-0.1-0.1-0.2-0.1c-0.2-0.1-0.4-0.1-0.6-0.1
	c-0.2,0-0.4,0.1-0.6,0.2c-0.2,0.1-0.2,0.3-0.2,0.5c0,0.2,0.1,0.4,0.3,0.5c0.2,0.1,0.4,0.2,0.7,0.3c0.3,0,0.6,0.1,0.9,0.2
	c0.3,0.1,0.6,0.2,0.9,0.3c0.3,0.1,0.5,0.4,0.7,0.7c0.2,0.3,0.3,0.7,0.3,1.2c0,0.5-0.1,0.9-0.3,1.3c-0.2,0.4-0.4,0.6-0.8,0.8
	c-0.6,0.4-1.2,0.6-1.9,0.6c-0.3,0-0.7,0-1-0.1c-0.3-0.1-0.6-0.2-0.8-0.3c-0.4-0.2-0.7-0.5-0.8-0.7L45,23.5z"/>
<path class="st6" d="M55.2,16.4c1.1,0,2,0.4,2.8,1.2c0.8,0.8,1.2,1.8,1.2,2.9c0,1.2-0.4,2.2-1.2,3c-0.8,0.8-1.7,1.2-2.8,1.2
	c-1.1,0-2.1-0.4-2.9-1.2c-0.8-0.8-1.2-1.8-1.2-2.9c0-0.6,0.1-1.2,0.3-1.7c0.2-0.5,0.5-1,0.9-1.3c0.4-0.4,0.8-0.6,1.3-0.9
	C54.2,16.5,54.7,16.4,55.2,16.4z M53.2,20.6c0,0.7,0.2,1.2,0.6,1.6c0.4,0.4,0.9,0.6,1.4,0.6c0.5,0,1-0.2,1.4-0.6
	c0.4-0.4,0.6-0.9,0.6-1.6c0-0.7-0.2-1.2-0.6-1.6c-0.4-0.4-0.9-0.6-1.4-0.6c-0.5,0-1,0.2-1.4,0.6C53.4,19.4,53.2,19.9,53.2,20.6z"/>
<path class="st7" d="M68.6,16.9c0.1,0.1,0.1,0.2,0.1,0.3c0,0.1,0,0.2,0,0.4v6.1c0,0.5-0.1,0.8-0.4,0.9c-0.1,0-0.3,0.1-0.5,0.1
	c-0.2,0-0.4,0-0.5-0.1c-0.1,0-0.2-0.1-0.3-0.1c-0.1-0.1-0.1-0.1-0.2-0.2c0-0.1-0.1-0.3-0.1-0.6v-3.7c-0.2,0.2-0.5,0.6-0.8,1.1
	c-0.4,0.5-0.6,0.8-0.7,0.9c-0.1,0.1-0.2,0.2-0.2,0.3c0,0-0.1,0.1-0.3,0.2c-0.1,0.1-0.3,0.1-0.5,0.1c-0.2,0-0.3,0-0.5-0.1
	c-0.1-0.1-0.2-0.2-0.3-0.2l-0.1-0.1c-0.1-0.2-0.4-0.6-0.9-1.2c-0.4-0.6-0.7-0.9-0.7-1v3.7c0,0.2,0,0.3,0,0.4c0,0.1,0,0.2-0.1,0.3
	c-0.1,0.2-0.4,0.3-0.9,0.3c-0.4,0-0.7-0.1-0.8-0.3C60,24.2,60,24.1,60,24.1c0-0.1,0-0.2,0-0.4v-6.1c0-0.2,0-0.3,0-0.4
	c0-0.1,0-0.2,0.1-0.3c0.1-0.2,0.4-0.3,0.9-0.3c0.2,0,0.4,0,0.5,0.1c0.1,0,0.2,0.1,0.3,0.1l0.1,0.1l2.5,3.3c1.3-1.7,2.1-2.8,2.5-3.3
	c0.1-0.2,0.4-0.3,0.9-0.3C68.2,16.6,68.5,16.7,68.6,16.9z"/>
<path class="st8" d="M71.7,22.7h3.4c0.2,0,0.3,0,0.4,0c0.1,0,0.2,0,0.3,0.1c0.2,0.1,0.3,0.4,0.3,0.9c0,0.5-0.1,0.8-0.4,0.9
	c-0.1,0-0.3,0.1-0.6,0.1h-4.4c-0.5,0-0.8-0.1-0.9-0.4c0-0.1-0.1-0.3-0.1-0.6v-6.2c0-0.4,0.1-0.6,0.2-0.8c0.1-0.1,0.4-0.2,0.8-0.2
	h4.4c0.2,0,0.3,0,0.4,0c0.1,0,0.2,0,0.3,0.1c0.2,0.1,0.3,0.4,0.3,0.9c0,0.5-0.1,0.8-0.4,0.9c-0.1,0-0.3,0.1-0.6,0.1h-3.4v1.1h2.2
	c0.2,0,0.3,0,0.4,0c0.1,0,0.2,0,0.3,0.1c0.2,0.1,0.3,0.4,0.3,0.9c0,0.5-0.1,0.8-0.4,0.9c-0.1,0-0.3,0.1-0.6,0.1h-2.2V22.7z"/>
<path class="st9" d="M80.4,16.4c1.1,0,2,0.4,2.8,1.2c0.8,0.8,1.2,1.8,1.2,2.9c0,1.2-0.4,2.2-1.2,3c-0.8,0.8-1.7,1.2-2.8,1.2
	c-1.1,0-2.1-0.4-2.9-1.2c-0.8-0.8-1.2-1.8-1.2-2.9c0-0.6,0.1-1.2,0.3-1.7c0.2-0.5,0.5-1,0.9-1.3c0.4-0.4,0.8-0.6,1.3-0.9
	C79.4,16.5,79.9,16.4,80.4,16.4z M78.4,20.6c0,0.7,0.2,1.2,0.6,1.6c0.4,0.4,0.9,0.6,1.4,0.6c0.5,0,1-0.2,1.4-0.6
	c0.4-0.4,0.6-0.9,0.6-1.6c0-0.7-0.2-1.2-0.6-1.6c-0.4-0.4-0.9-0.6-1.4-0.6c-0.5,0-1,0.2-1.4,0.6C78.6,19.4,78.4,19.9,78.4,20.6z"/>
<path class="st10" d="M90.3,16.9c0.1-0.1,0.2-0.2,0.3-0.3c0.1,0,0.3-0.1,0.5-0.1c0.2,0,0.4,0,0.5,0.1c0.1,0,0.2,0.1,0.3,0.1
	c0.1,0.1,0.1,0.1,0.1,0.2c0,0.1,0.1,0.3,0.1,0.6v6.1c0,0.2,0,0.3,0,0.4c0,0.1,0,0.2-0.1,0.3c-0.1,0.2-0.4,0.3-0.9,0.3
	c-0.3,0-0.5,0-0.6-0.1c-0.1,0-0.2-0.1-0.3-0.2c-1.7-2.2-2.8-3.7-3.3-4.3v3.6c0,0.2,0,0.3,0,0.4c0,0.1,0,0.2-0.1,0.3
	c-0.1,0.2-0.4,0.3-0.9,0.3c-0.5,0-0.7-0.1-0.8-0.3c-0.1-0.1-0.1-0.2-0.1-0.3c0-0.1,0-0.2,0-0.4v-6.2c0-0.3,0-0.5,0.1-0.6
	c0.1-0.1,0.2-0.2,0.3-0.3c0.1,0,0.3-0.1,0.5-0.1c0.2,0,0.4,0,0.5,0.1c0.1,0,0.2,0.1,0.3,0.1c0,0,0.1,0.1,0.3,0.3
	c1.6,2.1,2.6,3.5,3.1,4.2v-3.7C90.2,17.2,90.3,17,90.3,16.9z"/>
<path class="st0" d="M95.2,22.9h3.4c0.2,0,0.3,0,0.4,0c0.1,0,0.2,0,0.3,0.1c0.2,0.1,0.3,0.4,0.3,0.9c0,0.5-0.1,0.8-0.4,0.9
	c-0.1,0-0.3,0.1-0.6,0.1h-4.4c-0.5,0-0.8-0.1-0.9-0.4c0-0.1-0.1-0.3-0.1-0.6v-6.2c0-0.4,0.1-0.6,0.2-0.8c0.1-0.1,0.4-0.2,0.8-0.2
	h4.4c0.2,0,0.3,0,0.4,0c0.1,0,0.2,0,0.3,0.1c0.2,0.1,0.3,0.4,0.3,0.9c0,0.5-0.1,0.8-0.4,0.9c-0.1,0-0.3,0.1-0.6,0.1h-3.4v1.1h2.2
	c0.2,0,0.3,0,0.4,0c0.1,0,0.2,0,0.3,0.1c0.2,0.1,0.3,0.4,0.3,0.9c0,0.5-0.1,0.8-0.4,0.9c-0.1,0-0.3,0.1-0.6,0.1h-2.2V22.9z"/>
<path class="st2" d="M40.3,28.9c0.1-0.1,0.2-0.2,0.3-0.3c0.1,0,0.3-0.1,0.5-0.1c0.2,0,0.4,0,0.5,0.1c0.1,0,0.2,0.1,0.3,0.1
	c0.1,0.1,0.1,0.1,0.1,0.2c0,0.1,0.1,0.3,0.1,0.6v6.1c0,0.2,0,0.3,0,0.4c0,0.1,0,0.2-0.1,0.3c-0.1,0.2-0.4,0.3-0.9,0.3
	c-0.3,0-0.5,0-0.6-0.1c-0.1,0-0.2-0.1-0.3-0.2c-1.7-2.2-2.8-3.7-3.3-4.3v3.6c0,0.2,0,0.3,0,0.4c0,0.1,0,0.2-0.1,0.3
	c-0.1,0.2-0.4,0.3-0.9,0.3c-0.5,0-0.7-0.1-0.8-0.3c-0.1-0.1-0.1-0.2-0.1-0.3c0-0.1,0-0.2,0-0.4v-6.2c0-0.3,0-0.5,0.1-0.6
	c0.1-0.1,0.2-0.2,0.3-0.3c0.1,0,0.3-0.1,0.5-0.1c0.2,0,0.4,0,0.5,0.1c0.1,0,0.2,0.1,0.3,0.1c0,0,0.1,0.1,0.3,0.3
	c1.6,2.1,2.6,3.5,3.1,4.2v-3.7C40.2,29.2,40.2,29,40.3,28.9z"/>
<path class="st3" d="M45.5,34.7H49c0.2,0,0.3,0,0.4,0c0.1,0,0.2,0,0.3,0.1c0.2,0.1,0.3,0.4,0.3,0.9c0,0.5-0.1,0.8-0.4,0.9
	c-0.1,0-0.3,0.1-0.6,0.1h-4.4c-0.5,0-0.8-0.1-0.9-0.4c0-0.1-0.1-0.3-0.1-0.6v-6.2c0-0.4,0.1-0.6,0.2-0.8c0.1-0.1,0.4-0.2,0.8-0.2H49
	c0.2,0,0.3,0,0.4,0c0.1,0,0.2,0,0.3,0.1c0.2,0.1,0.3,0.4,0.3,0.9c0,0.5-0.1,0.8-0.4,0.9c-0.1,0-0.3,0.1-0.6,0.1h-3.4v1.1h2.2
	c0.2,0,0.3,0,0.4,0c0.1,0,0.2,0,0.3,0.1c0.2,0.1,0.3,0.4,0.3,0.9c0,0.5-0.1,0.8-0.4,0.9c-0.1,0-0.3,0.1-0.6,0.1h-2.2V34.7z"/>
<path class="st10" d="M60.8,28.6c0.5,0.2,0.7,0.4,0.7,0.7c0,0.1,0,0.3-0.1,0.5L59.3,36c0,0.1,0,0.1-0.1,0.2c0,0.1-0.1,0.2-0.3,0.3
	c-0.2,0.1-0.3,0.2-0.6,0.2c-0.2,0-0.4-0.1-0.6-0.2c-0.2-0.1-0.3-0.2-0.3-0.4l-1.3-3.8c-0.8,2.4-1.2,3.7-1.3,3.7c0,0,0,0.1-0.1,0.2
	c-0.1,0.1-0.1,0.2-0.2,0.2c-0.2,0.2-0.4,0.3-0.6,0.3c-0.2,0-0.4-0.1-0.6-0.2c-0.2-0.1-0.3-0.2-0.3-0.3L53.1,36l-2.1-6.1
	c-0.1-0.2-0.1-0.4-0.1-0.5c0-0.3,0.2-0.5,0.7-0.7c0.2-0.1,0.4-0.1,0.6-0.1c0.2,0,0.3,0.1,0.4,0.2c0.1,0.1,0.2,0.3,0.2,0.5l1.2,3.7
	l1.2-3.6c0.1-0.3,0.3-0.5,0.6-0.6c0.1-0.1,0.3-0.1,0.5-0.1s0.4,0.1,0.5,0.2c0.2,0.1,0.3,0.2,0.3,0.4l1.3,3.8l1.2-3.7
	c0.1-0.2,0.1-0.3,0.1-0.4c0-0.1,0.1-0.2,0.2-0.2c0.1-0.1,0.2-0.1,0.4-0.1C60.4,28.5,60.6,28.5,60.8,28.6z"/>
<g>
	<g>
		<path class="st1" d="M64.4,33.1L64.4,33.1c0-0.5,0.1-0.7,0.3-0.9c0.2-0.2,0.4-0.3,0.7-0.4c0.2-0.1,0.5-0.2,0.7-0.3
			c0.2-0.2,0.3-0.4,0.3-0.6c0-0.3-0.1-0.5-0.2-0.6C65.9,30,65.7,30,65.4,30s-0.5,0-0.7,0.1s-0.2,0.2-0.3,0.3l0,0.1
			c-0.1,0.2-0.2,0.4-0.3,0.5c-0.1,0.1-0.2,0.2-0.4,0.2c-0.2,0-0.4-0.1-0.6-0.1c-0.5-0.2-0.7-0.4-0.7-0.7c0-0.1,0-0.2,0.1-0.4
			c0-0.1,0.1-0.2,0.1-0.3c0-0.1,0.1-0.2,0.3-0.4s0.3-0.4,0.5-0.6c0.2-0.2,0.4-0.3,0.8-0.4c0.3-0.1,0.7-0.2,1.1-0.2
			c0.9,0,1.6,0.3,2.1,0.8s0.8,1.2,0.8,1.9c0,0.4-0.1,0.7-0.2,1c-0.1,0.3-0.3,0.5-0.5,0.7c-0.4,0.3-0.7,0.6-1,0.7l-0.2,0.1
			c0,0.1,0,0.2,0,0.3c0,0.1,0,0.2-0.1,0.2c-0.1,0.1-0.2,0.1-0.3,0.2c-0.1,0-0.3,0.1-0.6,0.1c-0.2,0-0.4,0-0.6-0.1
			c-0.1,0-0.2-0.1-0.3-0.2c-0.1-0.1-0.1-0.2-0.1-0.3C64.4,33.4,64.4,33.3,64.4,33.1z M64.3,35.3c0.1-0.1,0.2-0.2,0.4-0.3
			c0.2-0.1,0.4-0.1,0.8-0.1c0.4,0,0.6,0.1,0.8,0.2c0.2,0.2,0.2,0.5,0.2,0.9c0,0.3,0,0.6-0.1,0.7c-0.1,0.2-0.2,0.3-0.4,0.3
			c-0.2,0.1-0.4,0.1-0.8,0.1c-0.4,0-0.6-0.1-0.8-0.3c-0.1-0.1-0.2-0.4-0.2-0.7v-0.2c0-0.2,0-0.3,0-0.4
			C64.2,35.6,64.3,35.4,64.3,35.3z"/>
	</g>
</g>
</svg>
